<svg width="70" height="65" viewBox="0 0 70 65" fill="none" xmlns="http://www.w3.org/2000/svg">
<path d="M8.86587 36.9558L12.8421 52.8296H22.1378L16.3884 30.8094L21.8154 13.0649H13.0033L8.86587 27.1215V13.0649H0V52.8296H8.86587V36.9558Z" fill="#DBDBDB"/>
<path d="M24.9033 52.8942H37.6379C42.85 52.8942 45.5904 50.0081 45.5904 43.7548V21.8949C45.5904 15.5347 42.5276 13.1296 37.5842 13.1296H24.9033V52.8942ZM33.6617 20.5053H35.005C36.2409 20.5053 36.5633 21.1466 36.5633 22.8035V42.8462C36.5633 44.503 36.1872 45.2513 34.8976 45.2513H33.6617V20.5053Z" fill="#DBDBDB"/>
<path d="M69.9999 23.2567C69.9999 16.4689 67.1521 12.0328 60.0594 12.0328H58.3399C51.301 12.0328 48.3994 16.4155 48.3994 23.2567V42.1235C48.3994 49.0182 51.892 52.9199 58.3937 52.9199H60.1131C66.1849 52.9199 69.9999 49.0182 69.9999 42.1235V23.2567ZM60.8116 42.7115C60.8116 43.9407 60.3818 44.689 59.2534 44.689C58.0175 44.689 57.5877 43.9407 57.5877 42.7115V22.3481C57.5877 20.8516 57.9638 20.1033 59.1997 20.1033C60.2743 20.1033 60.8116 20.8516 60.8116 22.3481V42.7115Z" fill="#DBDBDB"/>
<path d="M55.4637 10.3485L55.4392 10.4609L51.2695 9.5509C50.9234 9.47538 50.7035 9.13471 50.7797 8.78919C50.8559 8.44388 51.1986 8.22631 51.5445 8.30178L54.785 9.009C53.8227 5.72324 51.2494 3.09932 47.8853 2.36516C42.9737 1.29325 38.1142 4.63483 37.0845 9.92837C37.017 10.2755 36.6798 10.5015 36.3322 10.4346C35.9844 10.3676 35.756 10.0325 35.8236 9.68522C36.9768 3.75697 42.4751 -0.124695 48.1603 1.11604C51.4831 1.8412 54.0945 4.15577 55.4511 7.12916L55.8074 5.29759C55.875 4.95047 56.2122 4.7245 56.5598 4.7914C56.9076 4.85834 57.1359 5.19345 57.0684 5.54074L56.2091 9.95816C56.1443 10.2913 55.831 10.5129 55.4985 10.471M55.4637 10.3485L55.4983 10.471C55.4984 10.471 55.4985 10.471 55.4985 10.471M55.4637 10.3485L55.4392 10.4609C55.459 10.4652 55.4788 10.4686 55.4985 10.471M55.4637 10.3485L55.4985 10.471M37.4428 59.6033L37.8151 57.7774C39.1445 60.7636 41.7346 63.1037 45.0501 63.8621C50.724 65.1599 56.2565 61.3332 57.4627 55.4165C57.5334 55.0699 57.3081 54.7327 56.9609 54.6627C56.6139 54.5927 56.2747 54.8157 56.204 55.1622C55.1271 60.4444 50.2395 63.737 45.3377 62.6158C41.9803 61.8479 39.4306 59.1982 38.4983 55.9033L41.7295 56.6424C42.0746 56.7213 42.4195 56.5072 42.4991 56.1626C42.5788 55.8179 42.3623 55.475 42.0171 55.3961L37.8561 54.4443C37.6874 54.4057 37.5103 54.4365 37.3647 54.5298C37.2191 54.6231 37.1174 54.7711 37.0829 54.9403L36.1841 59.3489C36.1134 59.6956 36.3388 60.0327 36.686 60.1027C37.033 60.1727 37.3722 59.9497 37.4428 59.6033Z" fill="#DBDBDB" stroke="#777777" stroke-width="0.23"/>
</svg>
